<svg width="16" height="16" viewBox="0 0 16 16" fill="none" xmlns="http://www.w3.org/2000/svg">
<path d="M6.53063 2.4694L11.5306 7.4694C11.6005 7.53908 11.656 7.62187 11.6939 7.71304C11.7317 7.8042 11.7512 7.90194 11.7512 8.00065C11.7512 8.09936 11.7317 8.1971 11.6939 8.28827C11.656 8.37943 11.6005 8.46222 11.5306 8.5319L6.53063 13.5319C6.38973 13.6728 6.19864 13.752 5.99938 13.752C5.80012 13.752 5.60902 13.6728 5.46813 13.5319C5.32723 13.391 5.24808 13.1999 5.24808 13.0007C5.24808 12.8014 5.32723 12.6103 5.46813 12.4694L9.9375 8.00003L5.4675 3.53065C5.32661 3.38976 5.24745 3.19866 5.24745 2.9994C5.24745 2.80015 5.32661 2.60905 5.4675 2.46815C5.6084 2.32726 5.7995 2.2481 5.99875 2.2481C6.19801 2.2481 6.38911 2.32726 6.53 2.46815L6.53063 2.4694Z" fill="black" fill-opacity="0.6"/>
</svg>
