<svg width="24" height="24" viewBox="0 0 24 24" fill="none" xmlns="http://www.w3.org/2000/svg">
<path d="M21.7963 20.2041L17.3441 15.75C18.679 14.0104 19.3023 11.8282 19.0874 9.64607C18.8725 7.4639 17.8356 5.44516 16.1871 3.99937C14.5385 2.55357 12.4018 1.78899 10.2102 1.86071C8.01865 1.93244 5.93644 2.8351 4.38595 4.38559C2.83546 5.93608 1.9328 8.0183 1.86107 10.2098C1.78935 12.4014 2.55393 14.5382 3.99972 16.1867C5.44552 17.8353 7.46426 18.8722 9.64643 19.087C11.8286 19.3019 14.0108 18.6787 15.7504 17.3438L20.2063 21.8006C20.3109 21.9053 20.4352 21.9883 20.5719 22.0449C20.7086 22.1016 20.8552 22.1307 21.0032 22.1307C21.1512 22.1307 21.2977 22.1016 21.4344 22.0449C21.5712 21.9883 21.6954 21.9053 21.8 21.8006C21.9047 21.696 21.9877 21.5717 22.0443 21.435C22.101 21.2983 22.1301 21.1517 22.1301 21.0037C22.1301 20.8558 22.101 20.7092 22.0443 20.5725C21.9877 20.4358 21.9047 20.3115 21.8 20.2069L21.7963 20.2041ZM4.12536 10.5C4.12536 9.23915 4.49925 8.0066 5.19974 6.95824C5.90024 5.90988 6.89587 5.09278 8.06075 4.61027C9.22563 4.12776 10.5074 4.00151 11.7441 4.2475C12.9807 4.49348 14.1166 5.10064 15.0082 5.9922C15.8997 6.88376 16.5069 8.01967 16.7529 9.2563C16.9988 10.4929 16.8726 11.7747 16.3901 12.9396C15.9076 14.1045 15.0905 15.1001 14.0421 15.8006C12.9938 16.5011 11.7612 16.875 10.5004 16.875C8.81014 16.8733 7.18964 16.2011 5.99447 15.0059C4.7993 13.8107 4.1271 12.1902 4.12536 10.5Z" fill="black"/>
</svg>
