<svg width="28" height="29" viewBox="0 0 28 29" fill="none" xmlns="http://www.w3.org/2000/svg">
<circle cx="14" cy="14.5839" r="14" fill="white"/>
<circle cx="14" cy="14.5839" r="13.5" stroke="black" stroke-opacity="0.2"/>
<path d="M20.2071 11.567C19.7881 11.7532 19.3458 11.8696 18.8802 11.9394C19.3458 11.6601 19.7183 11.2178 19.8812 10.6824C19.4389 10.9384 18.9501 11.1247 18.4146 11.2411C17.9956 10.7988 17.3904 10.5194 16.7386 10.5194C15.4815 10.5194 14.4572 11.5437 14.4572 12.8008C14.4572 12.987 14.4805 13.1499 14.5271 13.3129C12.6415 13.2198 10.9421 12.3119 9.80141 10.9152C9.61518 11.2643 9.49878 11.6368 9.49878 12.0558C9.49878 12.8473 9.89453 13.5457 10.5231 13.9647C10.1506 13.9414 9.80141 13.8483 9.4755 13.6854V13.7086C9.4755 14.826 10.267 15.7572 11.3145 15.9667C11.1283 16.0133 10.9188 16.0365 10.7093 16.0365C10.5696 16.0365 10.4067 16.0133 10.267 15.99C10.5696 16.8979 11.4077 17.573 12.4087 17.573C11.6172 18.1782 10.6395 18.5507 9.56862 18.5507C9.38239 18.5507 9.19616 18.5507 9.0332 18.5274C10.0575 19.1792 11.2447 19.5517 12.5483 19.5517C16.7618 19.5517 19.0665 16.0598 19.0665 13.0335C19.0665 12.9404 19.0665 12.824 19.0665 12.7309C19.5088 12.4283 19.9045 12.0325 20.2071 11.567Z" fill="black"/>
</svg>
