<svg width="64" height="64" viewBox="0 0 64 64" fill="none" xmlns="http://www.w3.org/2000/svg">
<g filter="url(#filter0_d_9_655)">
<path d="M4 8C4 5.79086 5.79086 4 8 4H56C58.2091 4 60 5.79086 60 8V56C60 58.2091 58.2091 60 56 60H8C5.79086 60 4 58.2091 4 56V8Z" fill="url(#paint0_linear_9_655)"/>
</g>
<path d="M41.5375 20.5813L33.5167 17.5771C32.6854 17.2708 31.3292 17.2708 30.4979 17.5771L22.4771 20.5813C20.9312 21.1646 19.6771 22.9729 19.6771 24.6209V36.4333C19.6771 37.6146 20.45 39.175 21.3979 39.875L29.4187 45.8688C30.8333 46.9334 33.1521 46.9334 34.5667 45.8688L42.5875 39.875C43.5354 39.1604 44.3083 37.6146 44.3083 36.4333V24.6209C44.3229 22.9729 43.0687 21.1646 41.5375 20.5813ZM33.0937 33.2688V37.1042C33.0937 37.7021 32.5979 38.1979 32 38.1979C31.4021 38.1979 30.9062 37.7021 30.9062 37.1042V33.2688C29.4333 32.8021 28.3542 31.4313 28.3542 29.8125C28.3542 27.8 29.9875 26.1667 32 26.1667C34.0125 26.1667 35.6458 27.8 35.6458 29.8125C35.6458 31.4458 34.5667 32.8021 33.0937 33.2688Z" fill="url(#paint1_linear_9_655)"/>
<defs>
<filter id="filter0_d_9_655" x="0" y="0" width="64" height="64" filterUnits="userSpaceOnUse" color-interpolation-filters="sRGB">
<feFlood flood-opacity="0" result="BackgroundImageFix"/>
<feColorMatrix in="SourceAlpha" type="matrix" values="0 0 0 0 0 0 0 0 0 0 0 0 0 0 0 0 0 0 127 0" result="hardAlpha"/>
<feOffset/>
<feGaussianBlur stdDeviation="2"/>
<feComposite in2="hardAlpha" operator="out"/>
<feColorMatrix type="matrix" values="0 0 0 0 0.0179967 0 0 0 0 0.266495 0 0 0 0 0.645392 0 0 0 0.1 0"/>
<feBlend mode="normal" in2="BackgroundImageFix" result="effect1_dropShadow_9_655"/>
<feBlend mode="normal" in="SourceGraphic" in2="effect1_dropShadow_9_655" result="shape"/>
</filter>
<linearGradient id="paint0_linear_9_655" x1="115.125" y1="131.75" x2="8.375" y2="-6.5" gradientUnits="userSpaceOnUse">
<stop stop-color="#81B2FC"/>
<stop offset="1" stop-color="white"/>
</linearGradient>
<linearGradient id="paint1_linear_9_655" x1="24.125" y1="18" x2="48.625" y2="55.625" gradientUnits="userSpaceOnUse">
<stop stop-color="#5C9DFF"/>
<stop offset="1" stop-color="#0D3F8B"/>
</linearGradient>
</defs>
</svg>
