<svg width="40" height="40" viewBox="0 0 40 40" fill="none" xmlns="http://www.w3.org/2000/svg">
<g filter="url(#filter0_d_7_23611)">
<path d="M4 8C4 5.79086 5.79086 4 8 4H32C34.2091 4 36 5.79086 36 8V32C36 34.2091 34.2091 36 32 36H8C5.79086 36 4 34.2091 4 32V8Z" fill="url(#paint0_linear_7_23611)"/>
</g>
<path d="M25.45 13.475L20.8667 11.7583C20.3917 11.5833 19.6167 11.5833 19.1417 11.7583L14.5583 13.475C13.675 13.8083 12.9583 14.8417 12.9583 15.7833V22.5333C12.9583 23.2083 13.4 24.1 13.9417 24.5L18.525 27.925C19.3333 28.5333 20.6583 28.5333 21.4667 27.925L26.05 24.5C26.5917 24.0917 27.0333 23.2083 27.0333 22.5333V15.7833C27.0417 14.8417 26.325 13.8083 25.45 13.475ZM20.625 20.725V22.9167C20.625 23.2583 20.3417 23.5417 20 23.5417C19.6583 23.5417 19.375 23.2583 19.375 22.9167V20.725C18.5333 20.4583 17.9167 19.675 17.9167 18.75C17.9167 17.6 18.85 16.6667 20 16.6667C21.15 16.6667 22.0833 17.6 22.0833 18.75C22.0833 19.6833 21.4667 20.4583 20.625 20.725Z" fill="url(#paint1_linear_7_23611)"/>
<defs>
<filter id="filter0_d_7_23611" x="0" y="0" width="40" height="40" filterUnits="userSpaceOnUse" color-interpolation-filters="sRGB">
<feFlood flood-opacity="0" result="BackgroundImageFix"/>
<feColorMatrix in="SourceAlpha" type="matrix" values="0 0 0 0 0 0 0 0 0 0 0 0 0 0 0 0 0 0 127 0" result="hardAlpha"/>
<feOffset/>
<feGaussianBlur stdDeviation="2"/>
<feComposite in2="hardAlpha" operator="out"/>
<feColorMatrix type="matrix" values="0 0 0 0 0.0179967 0 0 0 0 0.266495 0 0 0 0 0.645392 0 0 0 0.1 0"/>
<feBlend mode="normal" in2="BackgroundImageFix" result="effect1_dropShadow_7_23611"/>
<feBlend mode="normal" in="SourceGraphic" in2="effect1_dropShadow_7_23611" result="shape"/>
</filter>
<linearGradient id="paint0_linear_7_23611" x1="67.5" y1="77" x2="6.5" y2="-2" gradientUnits="userSpaceOnUse">
<stop stop-color="#81B2FC"/>
<stop offset="1" stop-color="white"/>
</linearGradient>
<linearGradient id="paint1_linear_7_23611" x1="15.5" y1="12" x2="29.5" y2="33.5" gradientUnits="userSpaceOnUse">
<stop stop-color="#5C9DFF"/>
<stop offset="1" stop-color="#0D3F8B"/>
</linearGradient>
</defs>
</svg>
